<?xml version="1.0" encoding="UTF-8"?>
<svg version="1.1" xmlns="http://www.w3.org/2000/svg" width="200" height="92">
<path d="M0 0 C66 0 132 0 200 0 C200 30.36 200 60.72 200 92 C134 92 68 92 0 92 C0 61.64 0 31.28 0 0 Z " fill="#E7332F" transform="translate(0,0)"/>
<path d="M0 0 C66 0 132 0 200 0 C200 30.36 200 60.72 200 92 C134 92 68 92 0 92 C0 61.64 0 31.28 0 0 Z M38.48046875 13.05078125 C31.45082447 14.96795696 24.19699565 15.91179447 17 17 C17 20.3 17 23.6 17 27 C13.37 27 9.74 27 6 27 C6 39.54 6 52.08 6 65 C9.63 65 13.26 65 17 65 C17 67.97 17 70.94 17 74 C57.91046867 85.56867913 99.87392322 89.97360098 142 83 C143.57154207 82.75734244 145.14315351 82.51513356 146.71484375 82.2734375 C154.83805112 80.97415384 162.73984831 79.12415912 170.66015625 76.91796875 C174.74859664 75.79424537 178.85182553 74.87329989 183 74 C183 71.03 183 68.06 183 65 C186.63 65 190.26 65 194 65 C194 52.46 194 39.92 194 27 C190.37 27 186.74 27 183 27 C183 23.7 183 20.4 183 17 C181.91900024 16.78851318 181.91900024 16.78851318 180.81616211 16.57275391 C177.52265929 15.92659548 174.23008117 15.27583781 170.9375 14.625 C169.80376953 14.40328125 168.67003906 14.1815625 167.50195312 13.953125 C158.67935627 12.20403874 158.67935627 12.20403874 154.56640625 10.96875 C119.00236678 1.30841945 73.582803 2.44039826 38.48046875 13.05078125 Z " fill="#FEFEFB" transform="translate(0,0)"/>
<path d="M0 0 C4.00743911 1.053175 7.91255887 1.79584589 12.02734375 2.26953125 C12.02734375 5.56953125 12.02734375 8.86953125 12.02734375 12.26953125 C15.65734375 12.26953125 19.28734375 12.26953125 23.02734375 12.26953125 C23.02734375 24.80953125 23.02734375 37.34953125 23.02734375 50.26953125 C19.39734375 50.26953125 15.76734375 50.26953125 12.02734375 50.26953125 C12.02734375 53.23953125 12.02734375 56.20953125 12.02734375 59.26953125 C11.12193848 59.47316284 11.12193848 59.47316284 10.19824219 59.6809082 C7.39094684 60.31316506 4.58411018 60.94743052 1.77734375 61.58203125 C0.25197998 61.92596924 0.25197998 61.92596924 -1.30419922 62.27685547 C-6.26120242 63.40088708 -11.19107803 64.56477744 -16.09765625 65.89453125 C-33.31358539 70.29221417 -51.33625963 71.52257193 -69.03515625 71.58203125 C-69.78722351 71.58464966 -70.53929077 71.58726807 -71.31414795 71.58996582 C-93.99238717 71.59830407 -117.1008293 69.46416634 -138.97265625 63.26953125 C-140.41718515 62.88635654 -141.86253104 62.50625123 -143.30859375 62.12890625 C-146.86923516 61.19719497 -150.42262563 60.24100979 -153.97265625 59.26953125 C-153.97265625 56.29953125 -153.97265625 53.32953125 -153.97265625 50.26953125 C-157.60265625 50.26953125 -161.23265625 50.26953125 -164.97265625 50.26953125 C-164.97265625 37.72953125 -164.97265625 25.18953125 -164.97265625 12.26953125 C-161.34265625 12.26953125 -157.71265625 12.26953125 -153.97265625 12.26953125 C-153.97265625 8.96953125 -153.97265625 5.66953125 -153.97265625 2.26953125 C-152.28462891 2.01429687 -152.28462891 2.01429687 -150.5625 1.75390625 C-143.3208667 0.62250043 -136.2520627 -0.54318998 -129.22265625 -2.66796875 C-87.79656141 -13.98585753 -41.09754226 -10.82256431 0 0 Z M-113.41015625 -1.48046875 C-114.12042969 -1.35623535 -114.83070312 -1.23200195 -115.5625 -1.10400391 C-122.54841432 0.14242717 -129.51119155 1.5192066 -136.47265625 2.89453125 C-138.13059204 3.22179199 -138.13059204 3.22179199 -139.82202148 3.55566406 C-141.36611694 3.86648926 -141.36611694 3.86648926 -142.94140625 4.18359375 C-143.86373047 4.36873535 -144.78605469 4.55387695 -145.73632812 4.74462891 C-147.99304209 5.18347445 -147.99304209 5.18347445 -149.97265625 6.26953125 C-149.97265625 8.90953125 -149.97265625 11.54953125 -149.97265625 14.26953125 C-153.60265625 14.26953125 -157.23265625 14.26953125 -160.97265625 14.26953125 C-160.97265625 25.48953125 -160.97265625 36.70953125 -160.97265625 48.26953125 C-157.34265625 48.26953125 -153.71265625 48.26953125 -149.97265625 48.26953125 C-149.97265625 50.90953125 -149.97265625 53.54953125 -149.97265625 56.26953125 C-128.5976211 61.47903282 -107.03488116 65.91914542 -84.97265625 66.26953125 C-83.88887695 66.28999512 -82.80509766 66.31045898 -81.68847656 66.33154297 C-58.94019647 66.70340759 -36.24877142 66.28041685 -13.97265625 61.26953125 C-12.81507813 61.00914063 -11.6575 60.74875 -10.46484375 60.48046875 C-8.29775853 59.9826928 -6.13223758 59.47803057 -3.96875 58.96484375 C0.34346121 57.96409591 4.68023389 57.10362682 9.02734375 56.26953125 C9.02734375 53.62953125 9.02734375 50.98953125 9.02734375 48.26953125 C12.32734375 48.26953125 15.62734375 48.26953125 19.02734375 48.26953125 C19.02734375 37.04953125 19.02734375 25.82953125 19.02734375 14.26953125 C15.72734375 14.26953125 12.42734375 14.26953125 9.02734375 14.26953125 C9.02734375 11.62953125 9.02734375 8.98953125 9.02734375 6.26953125 C-2.28476621 3.82754241 -13.61355392 1.48302636 -24.97265625 -0.73046875 C-26.03097656 -0.93704102 -27.08929688 -1.14361328 -28.1796875 -1.35644531 C-54.8815023 -6.31289806 -86.62325486 -6.19627943 -113.41015625 -1.48046875 Z " fill="#A3261F" transform="translate(170.97265625,14.73046875)"/>
<path d="M0 0 C0.74040527 0.09651855 1.48081055 0.19303711 2.24365234 0.29248047 C13.66946706 1.7905044 24.82091762 4.22207361 36.01806641 6.93066406 C41.68246963 8.29220749 47.20049773 9.42495866 53 10 C53 12.97 53 15.94 53 19 C56.63 19 60.26 19 64 19 C64 34.18 64 49.36 64 65 C60.37 65 56.74 65 53 65 C53.0309375 66.9490625 53.0309375 66.9490625 53.0625 68.9375 C53.08399454 70.29165633 53.07148199 71.64756083 53 73 C50.80759587 75.19240413 46.33623486 75.17752885 43.3125 75.75 C37.67578575 76.83562709 32.0613618 77.95795266 26.48046875 79.3046875 C25.56418701 79.52415039 24.64790527 79.74361328 23.70385742 79.96972656 C21.98911039 80.38529144 20.276665 80.81057104 18.56762695 81.24902344 C1.52281012 85.34868311 -16.19620637 85.37845749 -33.625 85.3125 C-34.67926178 85.31001251 -35.73352356 85.30752502 -36.81973267 85.30496216 C-61.0279428 85.21675234 -83.35640382 82.60503291 -106.7890625 76.5234375 C-111.53824747 75.3065391 -116.12021915 74.44580714 -121 74 C-121 71.03 -121 68.06 -121 65 C-124.63 65 -128.26 65 -132 65 C-132 49.82 -132 34.64 -132 19 C-128.37 19 -124.74 19 -121 19 C-121 16.36 -121 13.72 -121 11 C-81.85415928 -0.80217884 -40.61916983 -5.75896373 0 0 Z M-95.51953125 9.05078125 C-102.54917553 10.96795696 -109.80300435 11.91179447 -117 13 C-117 16.3 -117 19.6 -117 23 C-120.63 23 -124.26 23 -128 23 C-128 35.54 -128 48.08 -128 61 C-124.37 61 -120.74 61 -117 61 C-117 63.97 -117 66.94 -117 70 C-76.08953133 81.56867913 -34.12607678 85.97360098 8 79 C9.57154207 78.75734244 11.14315351 78.51513356 12.71484375 78.2734375 C20.83805112 76.97415384 28.73984831 75.12415912 36.66015625 72.91796875 C40.74859664 71.79424537 44.85182553 70.87329989 49 70 C49 67.03 49 64.06 49 61 C52.63 61 56.26 61 60 61 C60 48.46 60 35.92 60 23 C56.37 23 52.74 23 49 23 C49 19.7 49 16.4 49 13 C47.91900024 12.78851318 47.91900024 12.78851318 46.81616211 12.57275391 C43.52265929 11.92659548 40.23008117 11.27583781 36.9375 10.625 C35.80376953 10.40328125 34.67003906 10.1815625 33.50195312 9.953125 C24.67935627 8.20403874 24.67935627 8.20403874 20.56640625 6.96875 C-14.99763322 -2.69158055 -60.417197 -1.55960174 -95.51953125 9.05078125 Z " fill="#F6D838" transform="translate(134,4)"/>
<path d="M0 0 C8.58 0 17.16 0 26 0 C26.33 2.64 26.66 5.28 27 8 C27.66 5.69 28.32 3.38 29 1 C31.8125 0.6875 31.8125 0.6875 35 1 C36.875 3.5 36.875 3.5 38 6 C38 4.02 38 2.04 38 0 C40.64 0 43.28 0 46 0 C45.67 2.31 45.34 4.62 45 7 C46.65 7 48.3 7 50 7 C49.979375 6.195625 49.95875 5.39125 49.9375 4.5625 C50 2 50 2 51 1 C58.52238806 0.76119403 58.52238806 0.76119403 61 2 C61 3.32 61 4.64 61 6 C59.68 6 58.36 6 57 6 C57 5.34 57 4.68 57 4 C56.34 4 55.68 4 55 4 C55 6.64 55 9.28 55 12 C55.66 12 56.32 12 57 12 C56.505 9.525 56.505 9.525 56 7 C57.65 7 59.3 7 61 7 C61.04241723 9.33294775 61.04092937 11.66702567 61 14 C60 15 60 15 57.96875 15.0625 C56.32291667 15.02083333 54.67708333 14.97916667 53.03125 14.9375 C51.00390764 14.76775055 51.00390764 14.76775055 50 16 C47.26105915 16.08858646 44.5474673 16.11523479 41.80859375 16.09765625 C40.98875504 16.0962413 40.16891632 16.09482635 39.32423401 16.09336853 C36.69528618 16.08775289 34.06642227 16.07519779 31.4375 16.0625 C29.65950643 16.05748701 27.88151154 16.05292376 26.10351562 16.04882812 C21.73564455 16.03777839 17.36783652 16.02050331 13 16 C13 13.36 13 10.72 13 8 C11.68 8 10.36 8 9 8 C9.33 10.64 9.66 13.28 10 16 C7.69 16 5.38 16 3 16 C3 13.36 3 10.72 3 8 C2.01 8 1.02 8 0 8 C0 5.36 0 2.72 0 0 Z " fill="#894F28" transform="translate(31,31)"/>
<path d="M0 0 C5.94 0 11.88 0 18 0 C18 0.66 18 1.32 18 2 C18.99 1.67 19.98 1.34 21 1 C23.33299825 0.96045766 25.66708189 0.95598268 28 1 C28.66 3.64 29.32 6.28 30 9 C30.66 9 31.32 9 32 9 C32 10.98 32 12.96 32 15 C35.3 15 38.6 15 42 15 C42 12.69 42 10.38 42 8 C40.68 8 39.36 8 38 8 C37.67 9.32 37.34 10.64 37 12 C37 8.37 37 4.74 37 1 C35.35 1 33.7 1 32 1 C31.67 1.99 31.34 2.98 31 4 C31 2.68 31 1.36 31 0 C33.31 0 35.62 0 38 0 C38 2.31 38 4.62 38 7 C39.65 7 41.3 7 43 7 C43 6.34 43 5.68 43 5 C43.66 5 44.32 5 45 5 C45 3.68 45 2.36 45 1 C47.31 1 49.62 1 52 1 C52.66 4.63 53.32 8.26 54 12 C54.66 12 55.32 12 56 12 C56 13.32 56 14.64 56 16 C43.46 16 30.92 16 18 16 C18 14.68 18 13.36 18 12 C16.68 12 15.36 12 14 12 C14 13.32 14 14.64 14 16 C9.71 16 5.42 16 1 16 C1 14.02 1 12.04 1 10 C0.67 11.65 0.34 13.3 0 15 C-0.66 15 -1.32 15 -2 15 C-2.33 14.34 -2.66 13.68 -3 13 C-3.33 13.66 -3.66 14.32 -4 15 C-4.99 15 -5.98 15 -7 15 C-7 10.38 -7 5.76 -7 1 C-5.35 1 -3.7 1 -2 1 C-1.67 1.66 -1.34 2.32 -1 3 C-0.67 2.01 -0.34 1.02 0 0 Z " fill="#8F4E26" transform="translate(114,31)"/>
<path d="M0 0 C26.4 0 52.8 0 80 0 C79.67 0.66 79.34 1.32 79 2 C73.72 2 68.44 2 63 2 C63 3.65 63 5.3 63 7 C61.68 7 60.36 7 59 7 C58.01 7.33 57.02 7.66 56 8 C54.88625 7.835 53.7725 7.67 52.625 7.5 C49.23245465 7.03206271 47.26754146 7.29350455 44 8 C42.66018514 7.6937566 41.32488113 7.36548445 40 7 C39.34 7.33 38.68 7.66 38 8 C34.90155671 8.23791118 31.79407872 8.18519028 28.6875 8.1875 C27.83220703 8.19974609 26.97691406 8.21199219 26.09570312 8.22460938 C17.54726029 8.24447408 17.54726029 8.24447408 14 6 C13.67 4.68 13.34 3.36 13 2 C9.04 2 5.08 2 1 2 C0.67 1.34 0.34 0.68 0 0 Z " fill="#E34A39" transform="translate(61,66)"/>
<path d="M0 0 C8.58 0 17.16 0 26 0 C26.33 4.95 26.66 9.9 27 15 C28.32 15 29.64 15 31 15 C31 13.68 31 12.36 31 11 C31.66 11 32.32 11 33 11 C33 12.65 33 14.3 33 16 C26.4 16 19.8 16 13 16 C13 13.36 13 10.72 13 8 C11.68 8 10.36 8 9 8 C9.33 10.64 9.66 13.28 10 16 C7.69 16 5.38 16 3 16 C3 13.36 3 10.72 3 8 C2.01 8 1.02 8 0 8 C0 5.36 0 2.72 0 0 Z " fill="#875625" transform="translate(31,31)"/>
<path d="M0 0 C1.32 0 2.64 0 4 0 C4 1.32 4 2.64 4 4 C5.65 3.67 7.3 3.34 9 3 C9 2.01 9 1.02 9 0 C13.29 0 17.58 0 22 0 C21.67 1.65 21.34 3.3 21 5 C20.505 4.01 20.505 4.01 20 3 C19.34 3 18.68 3 18 3 C17.67 3.99 17.34 4.98 17 6 C20.24078125 6.94466756 23.27225655 7.19098828 26.640625 7.31640625 C27.71054688 7.35830078 28.78046875 7.40019531 29.8828125 7.44335938 C30.99398437 7.48267578 32.10515625 7.52199219 33.25 7.5625 C34.37664062 7.60568359 35.50328125 7.64886719 36.6640625 7.69335938 C39.44258954 7.79932015 42.22120391 7.90139142 45 8 C45 8.33 45 8.66 45 9 C-4.38485211 10.09808848 -4.38485211 10.09808848 -25.5 10.125 C-26.51377716 10.12874634 -26.51377716 10.12874634 -27.54803467 10.13256836 C-35.42497106 10.15684019 -43.17030543 9.8849732 -51 9 C-51 8.34 -51 7.68 -51 7 C-33.51 6.67 -16.02 6.34 2 6 C1.34 5.67 0.68 5.34 0 5 C0 3.35 0 1.7 0 0 Z " fill="#E0715A" transform="translate(96,17)"/>
<path d="M0 0 C2.64 0 5.28 0 8 0 C8.33 0.99 8.66 1.98 9 3 C9.66 3 10.32 3 11 3 C11 2.01 11 1.02 11 0 C13.64 0 16.28 0 19 0 C18.67 0.99 18.34 1.98 18 3 C18 2.34 18 1.68 18 1 C16.02 1 14.04 1 12 1 C11.93941406 1.75925781 11.87882812 2.51851562 11.81640625 3.30078125 C11.73261719 4.29464844 11.64882812 5.28851563 11.5625 6.3125 C11.48128906 7.29863281 11.40007812 8.28476562 11.31640625 9.30078125 C11 12 11 12 10 15 C11.32 15 12.64 15 14 15 C14 13.68 14 12.36 14 11 C14.66 11 15.32 11 16 11 C16 12.32 16 13.64 16 15 C17.65 15 19.3 15 21 15 C20.83242187 14.25234375 20.66484375 13.5046875 20.4921875 12.734375 C20.28851563 11.74953125 20.08484375 10.7646875 19.875 9.75 C19.66617188 8.77546875 19.45734375 7.8009375 19.2421875 6.796875 C18.9797004 3.76557234 19.38011151 2.51982654 21 0 C23.64 0 26.28 0 29 0 C28.67 0.99 28.34 1.98 28 3 C28 2.34 28 1.68 28 1 C26.35 1 24.7 1 23 1 C23 5.62 23 10.24 23 15 C23.99 15 24.98 15 26 15 C26 13.02 26 11.04 26 9 C28 12.75 28 12.75 28 15 C28.66 15 29.32 15 30 15 C30.33 12.36 30.66 9.72 31 7 C31.33 7 31.66 7 32 7 C31.67 9.97 31.34 12.94 31 16 C27.37506666 16.05787784 23.75025143 16.0935542 20.125 16.125 C19.09246094 16.14175781 18.05992188 16.15851562 16.99609375 16.17578125 C16.00996094 16.18222656 15.02382812 16.18867187 14.0078125 16.1953125 C12.64100342 16.21102295 12.64100342 16.21102295 11.24658203 16.22705078 C9 16 9 16 7 14 C7.375 10.375 7.375 10.375 8 7 C6.35 7 4.7 7 3 7 C3.33 8.65 3.66 10.3 4 12 C3.34 12 2.68 12 2 12 C2 9.36 2 6.72 2 4 C2.66 4 3.32 4 4 4 C4 4.66 4 5.32 4 6 C5.32 6 6.64 6 8 6 C8 4.68 8 3.36 8 2 C5.36 1.67 2.72 1.34 0 1 C0 0.67 0 0.34 0 0 Z " fill="#865024" transform="translate(84,31)"/>
<path d="M0 0 C26.4 0 52.8 0 80 0 C79.67 0.66 79.34 1.32 79 2 C73.72 2 68.44 2 63 2 C63 3.65 63 5.3 63 7 C61.68 7 60.36 7 59 7 C58.01 7.33 57.02 7.66 56 8 C53.6599583 7.71758117 51.32495277 7.38749213 49 7 C48.67 7 48.34 7 48 7 C48 5.35 48 3.7 48 2 C32.16 1.67 16.32 1.34 0 1 C0 0.67 0 0.34 0 0 Z " fill="#E47E6A" transform="translate(61,66)"/>
<path d="M0 0 C1.65 0 3.3 0 5 0 C5.33 0.66 5.66 1.32 6 2 C6.33 1.34 6.66 0.68 7 0 C8.98 0 10.96 0 13 0 C13 4.62 13 9.24 13 14 C11.35 14 9.7 14 8 14 C8 12.35 8 10.7 8 9 C7.67 10.65 7.34 12.3 7 14 C6.34 14 5.68 14 5 14 C4.67 13.34 4.34 12.68 4 12 C3.67 12.66 3.34 13.32 3 14 C2.01 14 1.02 14 0 14 C0 9.38 0 4.76 0 0 Z " fill="#F3E605" transform="translate(107,32)"/>
<path d="M0 0 C3.63 0 7.26 0 11 0 C11 4.62 11 9.24 11 14 C7.37 14 3.74 14 0 14 C0 9.38 0 4.76 0 0 Z " fill="#EADD06" transform="translate(45,32)"/>
<path d="M0 0 C2.64 0 5.28 0 8 0 C8 0.66 8 1.32 8 2 C9.98 2 11.96 2 14 2 C13.91291331 3.45945288 13.80473093 4.91765868 13.6875 6.375 C13.62949219 7.18710937 13.57148437 7.99921875 13.51171875 8.8359375 C13 11 13 11 10 13 C6.9375 13.25 6.9375 13.25 4 13 C2 11 2 11 1.875 7.875 C1.91625 6.92625 1.9575 5.9775 2 5 C1.34 5 0.68 5 0 5 C0 3.35 0 1.7 0 0 Z " fill="#A83331" transform="translate(62,47)"/>
<path d="M0 0 C1.06521378 -0.00143509 1.06521378 -0.00143509 2.15194702 -0.00289917 C3.64605804 -0.00357484 5.14017209 -0.0017637 6.63427734 0.00244141 C8.87214086 0.00775012 11.10979925 0.0025003 13.34765625 -0.00390625 C22.37065505 -0.00764434 31.27935596 0.34643493 40.2734375 1.1328125 C40.2734375 1.4628125 40.2734375 1.7928125 40.2734375 2.1328125 C34.77416219 3.06064533 29.47350397 3.27912108 23.90234375 3.265625 C22.58060402 3.26706009 22.58060402 3.26706009 21.23216248 3.26852417 C19.37734912 3.26920156 17.52253334 3.26737817 15.66772461 3.26318359 C12.84808964 3.25783555 10.0286144 3.26314032 7.20898438 3.26953125 C5.39843715 3.26887027 3.58789003 3.26758868 1.77734375 3.265625 C0.94376846 3.26764923 0.11019318 3.26967346 -0.74864197 3.27175903 C-5.82706989 3.25169012 -10.69901857 2.85860086 -15.7265625 2.1328125 C-15.7265625 1.8028125 -15.7265625 1.4728125 -15.7265625 1.1328125 C-10.43836187 0.39350693 -5.35133923 0.00466667 0 0 Z " fill="#FBE550" transform="translate(87.7265625,1.8671875)"/>
<path d="M0 0 C2.31 0 4.62 0 7 0 C7.50471197 1.76949612 8.00360685 3.54065223 8.5 5.3125 C8.7784375 6.29863281 9.056875 7.28476562 9.34375 8.30078125 C10 11 10 11 10 14 C6.04 14 2.08 14 -2 14 C-1.34 9.38 -0.68 4.76 0 0 Z " fill="#E7DA07" transform="translate(159,32)"/>
<path d="M0 0 C2.31 0 4.62 0 7 0 C7.50471197 1.76949612 8.00360685 3.54065223 8.5 5.3125 C8.7784375 6.29863281 9.056875 7.28476562 9.34375 8.30078125 C10 11 10 11 10 14 C6.04 14 2.08 14 -2 14 C-1.34 9.38 -0.68 4.76 0 0 Z " fill="#EADD06" transform="translate(135,32)"/>
<path d="M0 0 C6.6 0.66 13.2 1.32 20 2 C20 2.66 20 3.32 20 4 C21.32 4 22.64 4 24 4 C23.67 4.66 23.34 5.32 23 6 C22.34 5.67 21.68 5.34 21 5 C20.67 6.65 20.34 8.3 20 10 C19.67 10 19.34 10 19 10 C19 7.69 19 5.38 19 3 C17.02 3 15.04 3 13 3 C13 4.32 13 5.64 13 7 C12.34 7 11.68 7 11 7 C11 9.97 11 12.94 11 16 C10.01 16 9.02 16 8 16 C8.66 12.7 9.32 9.4 10 6 C9.67 6 9.34 6 9 6 C9 7.65 9 9.3 9 11 C7.50260417 9.69791667 6.00520833 8.39583333 4.5078125 7.09375 C3.04063579 5.80427542 3.04063579 5.80427542 1 6 C1 8.64 1 11.28 1 14 C0.67 14 0.34 14 0 14 C-0.19627391 12.41773035 -0.38165538 10.83410729 -0.5625 9.25 C-0.66691406 8.36828125 -0.77132812 7.4865625 -0.87890625 6.578125 C-1 4 -1 4 0 0 Z " fill="#AC3A34" transform="translate(81,45)"/>
<path d="M0 0 C1.98 0 3.96 0 6 0 C6.50471197 1.76949612 7.00360685 3.54065223 7.5 5.3125 C7.7784375 6.29863281 8.056875 7.28476562 8.34375 8.30078125 C9 11 9 11 9 14 C7.35 14 5.7 14 4 14 C4 12.68 4 11.36 4 10 C3.34 10 2.68 10 2 10 C2 11.32 2 12.64 2 14 C0.68 14 -0.64 14 -2 14 C-2.21192221 8.80790596 -1.5912689 4.873261 0 0 Z " fill="#EFE105" transform="translate(60,32)"/>
<path d="M0 0 C7.38804781 -0.36334661 7.38804781 -0.36334661 10 1.1875 C11.34419875 3.62386024 11.35131571 5.25973747 11 8 C10.34 8.66 9.68 9.32 9 10 C7.68 10 6.36 10 5 10 C5 11.32 5 12.64 5 14 C3.35 14 1.7 14 0 14 C0 9.38 0 4.76 0 0 Z " fill="#ECDC07" transform="translate(122,32)"/>
<path d="M0 0 C1.98 0 3.96 0 6 0 C6.50692692 1.5811292 7.00526443 3.16501383 7.5 4.75 C7.7784375 5.63171875 8.056875 6.5134375 8.34375 7.421875 C9 10 9 10 9 14 C7.35 14 5.7 14 4 14 C4 12.68 4 11.36 4 10 C3.34 10 2.68 10 2 10 C2 11.32 2 12.64 2 14 C0.68 14 -0.64 14 -2 14 C-1.85866501 12.22880197 -1.71176792 10.45804713 -1.5625 8.6875 C-1.48128906 7.70136719 -1.40007812 6.71523438 -1.31640625 5.69921875 C-1 3 -1 3 0 0 Z " fill="#F0E305" transform="translate(96,32)"/>
<path d="M0 0 C3 0.1875 3 0.1875 5 1.1875 C5 2.5075 5 3.8275 5 5.1875 C3.68 5.1875 2.36 5.1875 1 5.1875 C1 4.5275 1 3.8675 1 3.1875 C0.34 3.1875 -0.32 3.1875 -1 3.1875 C-1 5.8275 -1 8.4675 -1 11.1875 C-0.34 11.1875 0.32 11.1875 1 11.1875 C0.67 9.5375 0.34 7.8875 0 6.1875 C1.65 6.1875 3.3 6.1875 5 6.1875 C5.04241723 8.52044775 5.04092937 10.85452567 5 13.1875 C4 14.1875 4 14.1875 0.5625 14.375 C-3 14.1875 -3 14.1875 -5 12.1875 C-5.265625 9.875 -5.265625 9.875 -5.25 7.1875 C-5.25515625 6.300625 -5.2603125 5.41375 -5.265625 4.5 C-4.83723033 0.77044638 -3.64270373 0.22766898 0 0 Z " fill="#F3E603" transform="translate(87,31.8125)"/>
<path d="M0 0 C1.65 0 3.3 0 5 0 C5.33 2.31 5.66 4.62 6 7 C7.32 7 8.64 7 10 7 C10 9.31 10 11.62 10 14 C6.7 14 3.4 14 0 14 C0 9.38 0 4.76 0 0 Z " fill="#EADD07" transform="translate(146,32)"/>
<path d="M0 0 C-4.93659496 3.39390903 -10.06926883 5.11962168 -16.0625 4.875 C-19.19144466 4.75443617 -19.19144466 4.75443617 -22 6.9921875 C-26.79293444 9.84061036 -31.51050699 9.4428938 -36.9375 9.25 C-37.90751953 9.23195313 -38.87753906 9.21390625 -39.87695312 9.1953125 C-42.25234894 9.14850667 -44.62563844 9.08296385 -47 9 C-47 8.67 -47 8.34 -47 8 C-46.351521 7.89977539 -45.70304199 7.79955078 -45.03491211 7.69628906 C-33.54688815 5.90214349 -22.19456561 4.10004192 -11.0234375 0.83203125 C-2.84 -1.42 -2.84 -1.42 0 0 Z " fill="#EEC829" transform="translate(182,75)"/>
<path d="M0 0 C2.31 0 4.62 0 7 0 C7 2.31 7 4.62 7 7 C8.65 7 10.3 7 12 7 C12 6.34 12 5.68 12 5 C12.66 5 13.32 5 14 5 C13.54177532 8.46941546 13.10868317 11.67395049 12 15 C13.65 15 15.3 15 17 15 C17.33 13.68 17.66 12.36 18 11 C18 12.32 18 13.64 18 15 C19.98 15 21.96 15 24 15 C24.33 14.01 24.66 13.02 25 12 C25 13.32 25 14.64 25 16 C12.79 16 0.58 16 -12 16 C-12 15.67 -12 15.34 -12 15 C-10.35 15 -8.7 15 -7 15 C-6.67 13.68 -6.34 12.36 -6 11 C-6 12.32 -6 13.64 -6 15 C-4.02 15 -2.04 15 0 15 C-0.33 13.35 -0.66 11.7 -1 10 C-0.34 9.67 0.32 9.34 1 9 C1 10.98 1 12.96 1 15 C4.3 15 7.6 15 11 15 C11 12.69 11 10.38 11 8 C9.68 8 8.36 8 7 8 C6.67 9.32 6.34 10.64 6 12 C6 8.37 6 4.74 6 1 C4.35 1 2.7 1 1 1 C0.67 1.99 0.34 2.98 0 4 C0 2.68 0 1.36 0 0 Z " fill="#844327" transform="translate(145,31)"/>
<path d="M0 0 C3.96 0 7.92 0 12 0 C12 1.65 12 3.3 12 5 C11.34 5 10.68 5 10 5 C10 4.34 10 3.68 10 3 C9.34 3 8.68 3 8 3 C8.33 5.97 8.66 8.94 9 12 C6.69 12 4.38 12 2 12 C2.33 9.69 2.66 7.38 3 5 C2.01 5 1.02 5 0 5 C0 3.35 0 1.7 0 0 Z " fill="#A07271" transform="translate(30,49)"/>
<path d="M0 0 C3.63 0 7.26 0 11 0 C11 1.98 11 3.96 11 6 C10.34 6 9.68 6 9 6 C9 5.01 9 4.02 9 3 C8.34 3 7.68 3 7 3 C7.33 6.63 7.66 10.26 8 14 C6.35 14 4.7 14 3 14 C2.67 11.36 2.34 8.72 2 6 C1.34 6 0.68 6 0 6 C0 4.02 0 2.04 0 0 Z " fill="#F5E804" transform="translate(32,32)"/>
<path d="M0 0 C1.65 0 3.3 0 5 0 C5 3.3 5 6.6 5 10 C5.33 9.01 5.66 8.02 6 7 C6.99 7 7.98 7 9 7 C9 9.31 9 11.62 9 14 C5.7 14 2.4 14 -1 14 C-0.67 9.38 -0.34 4.76 0 0 Z " fill="#F5E704" transform="translate(71,32)"/>
<path d="M0 0 C1.32 0 2.64 0 4 0 C4.66 2.97 5.32 5.94 6 9 C6.99 9 7.98 9 9 9 C9 9.99 9 10.98 9 12 C5.04 12 1.08 12 -3 12 C-3.33 11.01 -3.66 10.02 -4 9 C-3.34 9 -2.68 9 -2 9 C-2 8.34 -2 7.68 -2 7 C-1.34 7 -0.68 7 0 7 C0 4.69 0 2.38 0 0 Z " fill="#753937" transform="translate(161,49)"/>
<path d="M0 0 C3.96 0 7.92 0 12 0 C12 3.3 12 6.6 12 10 C10.68 9.67 9.36 9.34 8 9 C8.33 8.01 8.66 7.02 9 6 C7.35 6 5.7 6 4 6 C4.33 7.32 4.66 8.64 5 10 C3.35 10 1.7 10 0 10 C0 6.7 0 3.4 0 0 Z " fill="#BCA9A9" transform="translate(141,50)"/>
<path d="M0 0 C11.22 0.66 22.44 1.32 34 2 C33.67 2.66 33.34 3.32 33 4 C28.78247482 4.02473064 24.56498814 4.04287453 20.34741211 4.05493164 C18.91283432 4.05995842 17.47826164 4.06678079 16.04370117 4.07543945 C13.98094418 4.08757752 11.91825496 4.09324486 9.85546875 4.09765625 C8.61434326 4.10289307 7.37321777 4.10812988 6.09448242 4.11352539 C3 4 3 4 0 3 C0 2.01 0 1.02 0 0 Z " fill="#FAE02D" transform="translate(69,84)"/>
<path d="M0 0 C1.98 0 3.96 0 6 0 C6 0.99 6 1.98 6 3 C6.66 3.33 7.32 3.66 8 4 C8 3.01 8 2.02 8 1 C9.32 1.33 10.64 1.66 12 2 C12 4.97 12 7.94 12 11 C10.68 11 9.36 11 8 11 C8 9.68 8 8.36 8 7 C6.68 7 5.36 7 4 7 C4.33 8.32 4.66 9.64 5 11 C3.68 10.67 2.36 10.34 1 10 C1.020625 8.906875 1.04125 7.81375 1.0625 6.6875 C1.18544452 3.05615809 1.18544452 3.05615809 0 0 Z " fill="#8E5B5A" transform="translate(46,49)"/>
<path d="M0 0 C6.93359375 -0.09765625 6.93359375 -0.09765625 9 0 C10 1 10 1 10.0625 4.0625 C10.041875 5.031875 10.02125 6.00125 10 7 C8.02 7 6.04 7 4 7 C4.33 8.32 4.66 9.64 5 11 C3.68 11 2.36 11 1 11 C0.67 7.37 0.34 3.74 0 0 Z " fill="#8F5D5B" transform="translate(113,49)"/>
<path d="M0 0 C9.25599658 -0.27675737 17.87995448 0.46859805 27 2 C24.35030963 4.64969037 22.37449836 4.26142444 18.76757812 4.2734375 C17.55231445 4.26183594 17.55231445 4.26183594 16.3125 4.25 C15.52166016 4.25773438 14.73082031 4.26546875 13.91601562 4.2734375 C8.90219274 4.25687657 4.75227983 3.60317874 0 2 C0 1.34 0 0.68 0 0 Z " fill="#F7D92F" transform="translate(121,4)"/>
<path d="M0 0 C1.65 0 3.3 0 5 0 C5 4.62 5 9.24 5 14 C3.35 14 1.7 14 0 14 C-1.33257403 4.58997722 -1.33257403 4.58997722 0 0 Z " fill="#F3E605" transform="translate(51,32)"/>
<path d="M0 0 C4.62 0 9.24 0 14 0 C14 3.96 14 7.92 14 12 C9.38 12 4.76 12 0 12 C0 8.04 0 4.08 0 0 Z M1 1 C1 4.3 1 7.6 1 11 C2.65 11 4.3 11 6 11 C5.67 9.68 5.34 8.36 5 7 C6.65 7 8.3 7 10 7 C9.67 8.32 9.34 9.64 9 11 C10.32 10.67 11.64 10.34 13 10 C13 7.03 13 4.06 13 1 C9.04 1 5.08 1 1 1 Z " fill="#813230" transform="translate(140,49)"/>
<path d="M0 0 C-0.33 0.66 -0.66 1.32 -1 2 C-1.64066406 1.96519531 -2.28132813 1.93039062 -2.94140625 1.89453125 C-8.85176367 1.70955732 -12.55856072 2.52661851 -18 5 C-23.29379967 6.02277346 -28.62542156 6.11435273 -34 6 C-31.24932828 4.16621886 -29.93875517 3.60691604 -26.83203125 2.96484375 C-26.02056641 2.79533203 -25.20910156 2.62582031 -24.37304688 2.45117188 C-23.10557617 2.1969043 -23.10557617 2.1969043 -21.8125 1.9375 C-20.98685547 1.76412109 -20.16121094 1.59074219 -19.31054688 1.41210938 C-4.40791985 -1.65296994 -4.40791985 -1.65296994 0 0 Z " fill="#FAE23A" transform="translate(63,6)"/>
<path d="M0 0 C6.93 0 13.86 0 21 0 C21 2.31 21 4.62 21 7 C14.25 6.25 14.25 6.25 12 4 C12 3.01 12 2.02 12 1 C8.04 1 4.08 1 0 1 C0 0.67 0 0.34 0 0 Z " fill="#EE544D" transform="translate(62,67)"/>
<path d="M0 0 C1.98 0 3.96 0 6 0 C6 3.96 6 7.92 6 12 C4.02 12 2.04 12 0 12 C0 10.68 0 9.36 0 8 C-0.33 9.32 -0.66 10.64 -1 12 C-3.31 12 -5.62 12 -8 12 C-8 8.37 -8 4.74 -8 1 C-6.515 1.99 -6.515 1.99 -5 3 C-4.8125 6.625 -4.8125 6.625 -5 10 C-4.34 10 -3.68 10 -3 10 C-3 9.01 -3 8.02 -3 7 C-1.68 7 -0.36 7 1 7 C1 8.32 1 9.64 1 11 C1.99 10.67 2.98 10.34 4 10 C4 7.36 4 4.72 4 2 C3.01 1.67 2.02 1.34 1 1 C0.67 1.66 0.34 2.32 0 3 C0 2.01 0 1.02 0 0 Z " fill="#793736" transform="translate(53,49)"/>
<path d="M0 0 C0 0.33 0 0.66 0 1 C-10.04665154 3.201713 -19.71550759 4.19693709 -30 4 C-30 3.67 -30 3.34 -30 3 C-27.36 3 -24.72 3 -22 3 C-21.67 2.01 -21.34 1.02 -21 0 C-13.82242235 -1.01202288 -7.18808741 -0.88826175 0 0 Z " fill="#FBE33F" transform="translate(154,84)"/>
<path d="M0 0 C3.96 0 7.92 0 12 0 C11.67 1.98 11.34 3.96 11 6 C7.37 6 3.74 6 0 6 C0 4.02 0 2.04 0 0 Z " fill="#F1645F" transform="translate(83,16)"/>
<path d="M0 0 C7.59 0 15.18 0 23 0 C23 0.99 23 1.98 23 3 C23.99 3.33 24.98 3.66 26 4 C17.1849081 3.58440013 8.60397419 3.13031092 0 1 C0 0.67 0 0.34 0 0 Z " fill="#FBE553" transform="translate(46,84)"/>
<path d="M0 0 C1.32 0 2.64 0 4 0 C5.32 3.63 6.64 7.26 8 11 C6.35 11 4.7 11 3 11 C3 10.01 3 9.02 3 8 C2.01 8 1.02 8 0 8 C0.33 8.99 0.66 9.98 1 11 C0.01 10.67 -0.98 10.34 -2 10 C-1.34 6.7 -0.68 3.4 0 0 Z " fill="#947A79" transform="translate(128,49)"/>
<path d="M0 0 C1.32 0.33 2.64 0.66 4 1 C3.25 7.75 3.25 7.75 1 10 C-2.0625 10.1875 -2.0625 10.1875 -5 10 C-6 9 -6 9 -6.09765625 7.15234375 C-6.06510417 5.1015625 -6.03255208 3.05078125 -6 1 C-5.34 1 -4.68 1 -4 1 C-4 3.31 -4 5.62 -4 8 C-2.35 8 -0.7 8 1 8 C0.67 5.36 0.34 2.72 0 0 Z " fill="#897F7F" transform="translate(71,50)"/>
<path d="M0 0 C4.19174654 1.04793663 5.21592961 1.91763635 8 5 C8 3.35 8 1.7 8 0 C8.99 0.33 9.98 0.66 11 1 C10.67 3.97 10.34 6.94 10 10 C7.69 8.02 5.38 6.04 3 4 C3 5.98 3 7.96 3 10 C2.01 9.67 1.02 9.34 0 9 C0 6.03 0 3.06 0 0 Z " fill="#CDCBCB" transform="translate(81,50)"/>
<path d="M0 0 C0.79921875 0.00902344 1.5984375 0.01804687 2.421875 0.02734375 C3.02515625 0.03894531 3.6284375 0.05054687 4.25 0.0625 C4.25 0.3925 4.25 0.7225 4.25 1.0625 C-10.75 4.0625 -10.75 4.0625 -25.75 7.0625 C-24.16133589 3.88517178 -22.01134303 3.37848052 -18.75 2.0625 C-16.20311889 1.67344887 -13.68764893 1.44159853 -11.1171875 1.2734375 C-8.78917289 1.13104397 -8.78917289 1.13104397 -6.7421875 0.54296875 C-4.43445387 -0.0136023 -2.37053593 -0.03486082 0 0 Z " fill="#FBE655" transform="translate(181.75,76.9375)"/>
<path d="M0 0 C1.32 0 2.64 0 4 0 C4 1.32 4 2.64 4 4 C5.65 3.67 7.3 3.34 9 3 C9 3.66 9 4.32 9 5 C9.66 5.33 10.32 5.66 11 6 C9.10511048 7.89488952 6.42860854 7.18019112 3.91015625 7.23046875 C2 7 2 7 0 5 C-0.125 2.375 -0.125 2.375 0 0 Z " fill="#ED3B38" transform="translate(96,17)"/>
<path d="M0 0 C0.66 0.33 1.32 0.66 2 1 C2.625 3.5625 2.625 3.5625 3 6 C3.66 6 4.32 6 5 6 C5.33 5.34 5.66 4.68 6 4 C6.66 4.33 7.32 4.66 8 5 C8 5.99 8 6.98 8 8 C3.71 8 -0.58 8 -5 8 C-5 7.01 -5 6.02 -5 5 C-4.01 5 -3.02 5 -2 5 C-1.34 3.35 -0.68 1.7 0 0 Z " fill="#764745" transform="translate(102,53)"/>
<path d="M0 0 C0.33 1.65 0.66 3.3 1 5 C-2.81489674 6.46726798 -5.29011622 5.43336419 -9 4 C-9 3.01 -9 2.02 -9 1 C-8.34 1 -7.68 1 -7 1 C-6.360625 0.835 -5.72125 0.67 -5.0625 0.5 C-3 0 -3 0 0 0 Z " fill="#F2706A" transform="translate(102,68)"/>
<path d="M0 0 C1.65 0 3.3 0 5 0 C5.66 1.65 6.32 3.3 7 5 C6 6 6 6 2.9375 6.0625 C1.4834375 6.0315625 1.4834375 6.0315625 0 6 C0 4.02 0 2.04 0 0 Z " fill="#F05651" transform="translate(84,68)"/>
<path d="M0 0 C3.3 0 6.6 0 10 0 C9.67 1.65 9.34 3.3 9 5 C8.67 4.34 8.34 3.68 8 3 C5.69 3.66 3.38 4.32 1 5 C0.67 3.35 0.34 1.7 0 0 Z " fill="#F59590" transform="translate(108,17)"/>
<path d="M0 0 C0.99 0.33 1.98 0.66 3 1 C3.94921875 3.06640625 3.94921875 3.06640625 4.6875 5.5625 C5.06455078 6.80193359 5.06455078 6.80193359 5.44921875 8.06640625 C5.63097656 8.70449219 5.81273438 9.34257813 6 10 C4.68 9.67 3.36 9.34 2 9 C1.67 7.35 1.34 5.7 1 4 C0.34 5.98 -0.32 7.96 -1 10 C-1.99 9.67 -2.98 9.34 -4 9 C-2.68 6.03 -1.36 3.06 0 0 Z " fill="#D9D7D8" transform="translate(102,50)"/>
<path d="M0 0 C2.31 0 4.62 0 7 0 C7 2.31 7 4.62 7 7 C8.65 7 10.3 7 12 7 C12 6.34 12 5.68 12 5 C12.66 5 13.32 5 14 5 C13.67 6.65 13.34 8.3 13 10 C12.67 9.34 12.34 8.68 12 8 C10.35 8 8.7 8 7 8 C6.67 9.32 6.34 10.64 6 12 C6 8.37 6 4.74 6 1 C4.35 1 2.7 1 1 1 C0.67 1.99 0.34 2.98 0 4 C0 2.68 0 1.36 0 0 Z " fill="#904C28" transform="translate(145,31)"/>
<path d="M0 0 C3 1 3 1 5 4 C6.32 4 7.64 4 9 4 C8.01 5.485 8.01 5.485 7 7 C3.875 7.1875 3.875 7.1875 1 7 C0.67 4.69 0.34 2.38 0 0 Z " fill="#EF4F4B" transform="translate(105,17)"/>
<path d="M0 0 C2.31 0 4.62 0 7 0 C7 1.65 7 3.3 7 5 C5.68 5.33 4.36 5.66 3 6 C2.67 5.01 2.34 4.02 2 3 C1.34 3 0.68 3 0 3 C0 2.01 0 1.02 0 0 Z " fill="#EF4F4A" transform="translate(102,68)"/>
<path d="M0 0 C0.66 0 1.32 0 2 0 C2 1.32 2 2.64 2 4 C2.99 4 3.98 4 5 4 C5 2.68 5 1.36 5 0 C5.66 0 6.32 0 7 0 C6.67 1.65 6.34 3.3 6 5 C4.68 5 3.36 5 2 5 C2.33 6.32 2.66 7.64 3 9 C1.68 8.67 0.36 8.34 -1 8 C-0.67 5.36 -0.34 2.72 0 0 Z " fill="#E6E4E4" transform="translate(115,51)"/>
<path d="M0 0 C0.99 0 1.98 0 3 0 C3.1799928 5.21979128 2.97094808 9.07262981 1 14 C0.67 12.68 0.34 11.36 0 10 C-1.32 9.67 -2.64 9.34 -4 9 C-2.68 8.34 -1.36 7.68 0 7 C0 4.69 0 2.38 0 0 Z " fill="#A04B27" transform="translate(132,33)"/>
<path d="M0 0 C0.66 0.99 1.32 1.98 2 3 C2 2.34 2 1.68 2 1 C2.99 1 3.98 1 5 1 C5 1.99 5 2.98 5 4 C6.98 3.34 8.96 2.68 11 2 C11 2.99 11 3.98 11 5 C6.71 5 2.42 5 -2 5 C-2 4.01 -2 3.02 -2 2 C-1.34 2 -0.68 2 0 2 C0 1.34 0 0.68 0 0 Z " fill="#723736" transform="translate(126,56)"/>
<path d="M0 0 C2.31 0 4.62 0 7 0 C7 1.65 7 3.3 7 5 C4.69 5 2.38 5 0 5 C0 3.35 0 1.7 0 0 Z " fill="#F27771" transform="translate(109,68)"/>
<path d="M0 0 C0.33 0.99 0.66 1.98 1 3 C1.66 3.33 2.32 3.66 3 4 C2.34 4 1.68 4 1 4 C1.33 5.65 1.66 7.3 2 9 C0.35 9 -1.3 9 -3 9 C-2.5020163 5.26512223 -2.12508244 3.18762365 0 0 Z " fill="#EFE205" transform="translate(160,37)"/>
<path d="M0 0 C-0.99 1.485 -0.99 1.485 -2 3 C-4.95064148 3.2208564 -7.68368231 3.28060989 -10.625 3.1875 C-11.42679688 3.17396484 -12.22859375 3.16042969 -13.0546875 3.14648438 C-15.03674378 3.11109051 -17.01845551 3.05728234 -19 3 C-19 2.67 -19 2.34 -19 2 C-16.77149723 1.66225668 -14.54216533 1.3299813 -12.3125 1 C-10.45044922 0.7215625 -10.45044922 0.7215625 -8.55078125 0.4375 C-5.64113629 0.07899589 -2.92299978 -0.08942256 0 0 Z " fill="#ECC329" transform="translate(154,81)"/>
<path d="M0 0 C0.66 0 1.32 0 2 0 C3.32 3.3 4.64 6.6 6 10 C4.35 10 2.7 10 1 10 C1 7.69 1 5.38 1 3 C0.34 3 -0.32 3 -1 3 C-0.67 2.01 -0.34 1.02 0 0 Z " fill="#D7D5D6" transform="translate(163,50)"/>
<path d="M0 0 C6.93 0.495 6.93 0.495 14 1 C14 1.33 14 1.66 14 2 C9.32798795 3.20568053 4.78503708 3.09382426 0 3 C0 2.01 0 1.02 0 0 Z " fill="#F2D02A" transform="translate(69,84)"/>
<path d="M0 0 C1.32 0.33 2.64 0.66 4 1 C2.515 2.485 2.515 2.485 1 4 C1.66 4 2.32 4 3 4 C3.33 5.32 3.66 6.64 4 8 C2.68 8 1.36 8 0 8 C0.33 8.99 0.66 9.98 1 11 C0.01 10.67 -0.98 10.34 -2 10 C-1.34 6.7 -0.68 3.4 0 0 Z " fill="#9E8483" transform="translate(161,49)"/>
<path d="M0 0 C2.64 0 5.28 0 8 0 C7.67 1.65 7.34 3.3 7 5 C5.35 5 3.7 5 2 5 C1.34 3.35 0.68 1.7 0 0 Z " fill="#F48B85" transform="translate(87,17)"/>
<path d="M0 0 C3.3 0 6.6 0 10 0 C8.68 0.33 7.36 0.66 6 1 C4.8509288 2.9254644 4.8509288 2.9254644 5 5 C3.68 5.33 2.36 5.66 1 6 C0.67 4.02 0.34 2.04 0 0 Z " fill="#EE3F3A" transform="translate(89,68)"/>
<path d="M0 0 C0.66 0 1.32 0 2 0 C3.32 3.3 4.64 6.6 6 10 C4.68 9.67 3.36 9.34 2 9 C1.67 7.02 1.34 5.04 1 3 C0.34 3 -0.32 3 -1 3 C-0.67 2.01 -0.34 1.02 0 0 Z " fill="#DEDDDD" transform="translate(130,50)"/>
<path d="M0 0 C1.65 0 3.3 0 5 0 C5 3.3 5 6.6 5 10 C3.68 9.67 2.36 9.34 1 9 C1.020625 7.88625 1.04125 6.7725 1.0625 5.625 C1.26380718 2.16784079 1.26380718 2.16784079 0 0 Z " fill="#CECCCD" transform="translate(46,50)"/>
<path d="M0 0 C1.32 0.66 2.64 1.32 4 2 C3.67 3.32 3.34 4.64 3 6 C2.34 6 1.68 6 1 6 C1 8.64 1 11.28 1 14 C0.67 14 0.34 14 0 14 C-0.19627391 12.41773035 -0.38165538 10.83410729 -0.5625 9.25 C-0.66691406 8.36828125 -0.77132812 7.4865625 -0.87890625 6.578125 C-0.99456676 4.11567549 -0.73638695 2.33461936 0 0 Z " fill="#A84542" transform="translate(81,45)"/>
<path d="M0 0 C0.33 0 0.66 0 1 0 C1 3.63 1 7.26 1 11 C0.01 11 -0.98 11 -2 11 C-2.33 8.36 -2.66 5.72 -3 3 C-2.34 3.66 -1.68 4.32 -1 5 C-0.67 3.35 -0.34 1.7 0 0 Z " fill="#A16124" transform="translate(70,32)"/>
<path d="M0 0 C1.33804688 0.17982422 1.33804688 0.17982422 2.703125 0.36328125 C3.37859375 0.47027344 4.0540625 0.57726562 4.75 0.6875 C4.75 1.0175 4.75 1.3475 4.75 1.6875 C3.16913952 2.05254603 1.58516093 2.40410506 0 2.75 C-0.88171875 2.94722656 -1.7634375 3.14445312 -2.671875 3.34765625 C-5.23679028 3.68575872 -6.82091639 3.49908635 -9.25 2.6875 C-6.03037108 -0.23875152 -4.27288159 -0.61844339 0 0 Z " fill="#FBE75B" transform="translate(149.25,83.3125)"/>
<path d="M0 0 C-6.4 4.06153846 -6.4 4.06153846 -9.4375 3.75 C-9.953125 3.5025 -10.46875 3.255 -11 3 C-7.6562111 -0.84535724 -4.83651161 -1.55459302 0 0 Z " fill="#F9DD2E" transform="translate(163,80)"/>
<path d="M0 0 C1.32 0.33 2.64 0.66 4 1 C4 3.97 4 6.94 4 10 C2.68 9.67 1.36 9.34 0 9 C0 6.03 0 3.06 0 0 Z " fill="#D9D8D8" transform="translate(54,50)"/>
<path d="M0 0 C5.94 0.99 5.94 0.99 12 2 C10 4 10 4 7 4.1875 C4 4 4 4 2 3 C2 2.34 2 1.68 2 1 C1.34 0.67 0.68 0.34 0 0 Z " fill="#FAE138" transform="translate(167,11)"/>
<path d="M0 0 C0 0.66 0 1.32 0 2 C0.66 2.33 1.32 2.66 2 3 C0.58249437 2.88490339 -0.83401169 2.75746342 -2.25 2.625 C-3.03890625 2.55539062 -3.8278125 2.48578125 -4.640625 2.4140625 C-7.085877 1.98492887 -8.84836903 1.21399362 -11 0 C-6.98195309 -0.84098656 -3.98196457 -1.05404945 0 0 Z " fill="#E8BB29" transform="translate(169,12)"/>
<path d="M0 0 C0 0.66 0 1.32 0 2 C-4.8333472 2.08333357 -9.23692563 1.95261487 -14 1 C-14 0.67 -14 0.34 -14 0 C-12.41773035 -0.19627391 -10.83410729 -0.38165538 -9.25 -0.5625 C-8.36828125 -0.66691406 -7.4865625 -0.77132813 -6.578125 -0.87890625 C-4.11567549 -0.99456676 -2.33461936 -0.73638695 0 0 Z " fill="#E7B928" transform="translate(150,8)"/>
<path d="M0 0 C1.32 0 2.64 0 4 0 C4 1.98 4 3.96 4 6 C2.68 6 1.36 6 0 6 C0 4.02 0 2.04 0 0 Z " fill="#E6312E" transform="translate(68,52)"/>
<path d="M0 0 C0.66 0 1.32 0 2 0 C2 0.66 2 1.32 2 2 C2.99 2.33 3.98 2.66 5 3 C4.01 4.485 4.01 4.485 3 6 C1.68 6 0.36 6 -1 6 C-1.33 4.68 -1.66 3.36 -2 2 C-1.34 2 -0.68 2 0 2 C0 1.34 0 0.68 0 0 Z " fill="#D78C6B" transform="translate(176,42)"/>
<path d="M0 0 C0.66 0 1.32 0 2 0 C2.0825 1.11375 2.165 2.2275 2.25 3.375 C2.57873787 7.05753944 2.57873787 7.05753944 5.0625 8.4375 C5.701875 8.623125 6.34125 8.80875 7 9 C5.00045254 9.04254356 2.99958364 9.04080783 1 9 C0 8 0 8 -0.09765625 6.15234375 C-0.06510417 4.1015625 -0.03255208 2.05078125 0 0 Z " fill="#E1DFDF" transform="translate(65,51)"/>
<path d="M0 0 C2.475 0.495 2.475 0.495 5 1 C4.67 2.32 4.34 3.64 4 5 C2.68 4.67 1.36 4.34 0 4 C0 2.68 0 1.36 0 0 Z " fill="#F38079" transform="translate(161,24)"/>
<path d="M0 0 C0 0.66 0 1.32 0 2 C0.66 2.33 1.32 2.66 2 3 C0.741875 2.87625 -0.51625 2.7525 -1.8125 2.625 C-2.87404297 2.52058594 -2.87404297 2.52058594 -3.95703125 2.4140625 C-6 2 -6 2 -9 0 C-5.67465243 -1.10844919 -3.37817425 -0.84454356 0 0 Z " fill="#FBE343" transform="translate(23,76)"/>
<path d="M0 0 C1.98 0 3.96 0 6 0 C6 1.32 6 2.64 6 4 C4.35 3.67 2.7 3.34 1 3 C0.67 2.01 0.34 1.02 0 0 Z " fill="#F48B85" transform="translate(74,69)"/>
<path d="M0 0 C1.485 0.99 1.485 0.99 3 2 C3.375 5.5 3.375 5.5 3 9 C2.01 9.66 1.02 10.32 0 11 C0 7.37 0 3.74 0 0 Z " fill="#934D4B" transform="translate(45,50)"/>
<path d="M0 0 C-1.5 1.5625 -1.5 1.5625 -4 3 C-6.77437543 2.96823234 -9.25286467 2.50364148 -12 2 C-12 1.67 -12 1.34 -12 1 C-7.93631321 0.22596442 -4.13574827 -0.0984702 0 0 Z " fill="#FAE24C" transform="translate(41,79)"/>
<path d="M0 0 C0.99 0.33 1.98 0.66 3 1 C2.67 3.97 2.34 6.94 2 10 C0 8.625 0 8.625 -2 7 C-2 6.34 -2 5.68 -2 5 C-1.34 5 -0.68 5 0 5 C0 3.35 0 1.7 0 0 Z " fill="#D4D3D3" transform="translate(89,50)"/>
<path d="M0 0 C1.98 0 3.96 0 6 0 C5.67 0.66 5.34 1.32 5 2 C4.01 2 3.02 2 2 2 C2 4.31 2 6.62 2 9 C1.67 9 1.34 9 1 9 C0.67 6.03 0.34 3.06 0 0 Z " fill="#885A59" transform="translate(63,49)"/>
<path d="M0 0 C1.32 0.99 2.64 1.98 4 3 C3.67 3.99 3.34 4.98 3 6 C1.68 6 0.36 6 -1 6 C-0.67 4.02 -0.34 2.04 0 0 Z " fill="#D79877" transform="translate(22,42)"/>
<path d="M0 0 C1.32 0 2.64 0 4 0 C3.67 1.65 3.34 3.3 3 5 C2.01 5 1.02 5 0 5 C0 3.35 0 1.7 0 0 Z " fill="#F69C97" transform="translate(96,17)"/>
<path d="M0 0 C2.64 0.33 5.28 0.66 8 1 C4.73454239 2.88391785 1.71888239 3.49287967 -2 4 C-1.34 2.68 -0.68 1.36 0 0 Z " fill="#E5B428" transform="translate(33,11)"/>
<path d="M0 0 C1.65 0 3.3 0 5 0 C4.67 1.32 4.34 2.64 4 4 C2.68 3.67 1.36 3.34 0 3 C0 2.01 0 1.02 0 0 Z " fill="#973F3D" transform="translate(145,56)"/>
<path d="M0 0 C0.99 0.33 1.98 0.66 3 1 C3 2.65 3 4.3 3 6 C1.35 4.35 -0.3 2.7 -2 1 C-1.34 0.67 -0.68 0.34 0 0 Z " fill="#8E403D" transform="translate(87,50)"/>
</svg>
