<?xml version="1.0" encoding="UTF-8"?>
<svg version="1.1" xmlns="http://www.w3.org/2000/svg" width="100" height="46">
<path d="M0 0 C0 1.32 0 2.64 0 4 C1.65 4 3.3 4 5 4 C5 11.59 5 19.18 5 27 C3.68 27.33 2.36 27.66 1 28 C0.67 29.32 0.34 30.64 0 32 C-3.49848597 32.81911146 -6.99903162 33.62907028 -10.5 34.4375 C-11.48226562 34.66759766 -12.46453125 34.89769531 -13.4765625 35.13476562 C-38.42279363 40.87239878 -63.51520505 38.55047761 -88 32 C-88 30.35 -88 28.7 -88 27 C-89.65 27 -91.3 27 -93 27 C-93 19.41 -93 11.82 -93 4 C-91.68 4 -90.36 4 -89 4 C-88.76667969 3.20762939 -88.53335938 2.41525879 -88.29296875 1.59887695 C-87 -1 -87 -1 -84.92578125 -2.02661133 C-81.95376878 -2.65827504 -78.99114047 -3.27612104 -76 -3.8125 C-74.85732666 -4.02116699 -73.71465332 -4.22983398 -72.53735352 -4.44482422 C-50.79690655 -7.99931838 -20.17634883 -10.08817442 0 0 Z " fill="#E9322F" transform="translate(94,7)"/>
<path d="M0 0 C0 1.32 0 2.64 0 4 C1.65 4 3.3 4 5 4 C5 11.59 5 19.18 5 27 C3.68 27.33 2.36 27.66 1 28 C0.67 29.32 0.34 30.64 0 32 C-3.49848597 32.81911146 -6.99903162 33.62907028 -10.5 34.4375 C-11.48226562 34.66759766 -12.46453125 34.89769531 -13.4765625 35.13476562 C-38.42279363 40.87239878 -63.51520505 38.55047761 -88 32 C-88 30.35 -88 28.7 -88 27 C-89.65 27 -91.3 27 -93 27 C-93 19.41 -93 11.82 -93 4 C-91.68 4 -90.36 4 -89 4 C-88.76667969 3.20762939 -88.53335938 2.41525879 -88.29296875 1.59887695 C-87 -1 -87 -1 -84.92578125 -2.02661133 C-81.95376878 -2.65827504 -78.99114047 -3.27612104 -76 -3.8125 C-74.85732666 -4.02116699 -73.71465332 -4.22983398 -72.53735352 -4.44482422 C-50.79690655 -7.99931838 -20.17634883 -10.08817442 0 0 Z M-73 1 C-74.10674072 1.19674316 -75.21348145 1.39348633 -76.35375977 1.59619141 C-78.90492271 2.05215468 -81.45322097 2.52024603 -84 3 C-84 4.32 -84 5.64 -84 7 C-85.65 7 -87.3 7 -89 7 C-89 12.61 -89 18.22 -89 24 C-87.35 24 -85.7 24 -84 24 C-83.67 25.65 -83.34 27.3 -83 29 C-80.85548495 29.48503256 -78.70930465 29.96270405 -76.5625 30.4375 C-75.36753906 30.70433594 -74.17257813 30.97117187 -72.94140625 31.24609375 C-64.28370825 32.98567388 -55.71946776 33.18636784 -46.90039062 33.18530273 C-44.89969786 33.18747321 -42.89904433 33.20593966 -40.8984375 33.22460938 C-28.65790162 33.24268103 -16.89987682 31.92277676 -5 29 C-4.67 27.35 -4.34 25.7 -4 24 C-2.35 24 -0.7 24 1 24 C1 18.72 1 13.44 1 8 C-0.65 8 -2.3 8 -4 8 C-4.495 5.525 -4.495 5.525 -5 3 C-18.05983904 -0.12877427 -30.6763304 -1.40221112 -44.0625 -1.375 C-45.10469193 -1.37717529 -45.10469193 -1.37717529 -46.16793823 -1.37939453 C-55.26851658 -1.37724592 -64.04324081 -0.64988964 -73 1 Z " fill="#AC2F21" transform="translate(94,7)"/>
<path d="M0 0 C2.97 0 5.94 0 9 0 C9 1.32 9 2.64 9 4 C18.24 4 27.48 4 37 4 C37 4.66 37 5.32 37 6 C36.34 6 35.68 6 35 6 C35 7.65 35 9.3 35 11 C35.99 11 36.98 11 38 11 C38 10.01 38 9.02 38 8 C39.65 8 41.3 8 43 8 C43.495 11.96 43.495 11.96 44 16 C41.20826945 16.02690104 38.41679652 16.04679053 35.625 16.0625 C34.8309375 16.07087891 34.036875 16.07925781 33.21875 16.08789062 C27.2265625 16.11328125 27.2265625 16.11328125 25 15 C25 14.34 25 13.68 25 13 C24.34 13 23.68 13 23 13 C23 13.99 23 14.98 23 16 C20.54159395 16.02691685 18.08348118 16.04679802 15.625 16.0625 C14.92632812 16.07087891 14.22765625 16.07925781 13.5078125 16.08789062 C8.2265625 16.11328125 8.2265625 16.11328125 6 15 C6.33 12.69 6.66 10.38 7 8 C6.34 8 5.68 8 5 8 C5 8.66 5 9.32 5 10 C4.01 10 3.02 10 2 10 C2.99 10.33 3.98 10.66 5 11 C5 12.32 5 13.64 5 15 C2.36 15.33 -0.28 15.66 -3 16 C-3 17.65 -3 19.3 -3 21 C-4.65614657 21.38218767 -6.32457024 21.71395102 -8 22 C-9 21 -9 21 -9.0625 18.4375 C-9.041875 17.633125 -9.02125 16.82875 -9 16 C-9.99 16 -10.98 16 -12 16 C-12 18.31 -12 20.62 -12 23 C-13.98 23 -15.96 23 -18 23 C-18.33 22.01 -18.66 21.02 -19 20 C-19.66 20.99 -20.32 21.98 -21 23 C-22.32 23 -23.64 23 -25 23 C-25.82965992 17.6072105 -26 12.44309148 -26 7 C-23.87506859 6.97306425 -21.75004088 6.95363372 -19.625 6.9375 C-18.44164062 6.92589844 -17.25828125 6.91429687 -16.0390625 6.90234375 C-13 7 -13 7 -11 8 C-11.33 10.31 -11.66 12.62 -12 15 C-11.34 15 -10.68 15 -10 15 C-9.67 14.34 -9.34 13.68 -9 13 C-9 13.66 -9 14.32 -9 15 C-8.34 15 -7.68 15 -7 15 C-7.33 12.69 -7.66 10.38 -8 8 C-7.34 7.67 -6.68 7.34 -6 7 C-10.29 6.67 -14.58 6.34 -19 6 C-19 5.34 -19 4.68 -19 4 C-12.73 4 -6.46 4 0 4 C0 2.68 0 1.36 0 0 Z " fill="#E64237" transform="translate(41,8)"/>
<path d="M0 0 C0 1.32 0 2.64 0 4 C1.65 4 3.3 4 5 4 C5 11.59 5 19.18 5 27 C3.68 27.33 2.36 27.66 1 28 C0.67 29.32 0.34 30.64 0 32 C-3.49848597 32.81911146 -6.99903162 33.62907028 -10.5 34.4375 C-11.48226562 34.66759766 -12.46453125 34.89769531 -13.4765625 35.13476562 C-38.42279363 40.87239878 -63.51520505 38.55047761 -88 32 C-88 30.35 -88 28.7 -88 27 C-89.65 27 -91.3 27 -93 27 C-93 19.41 -93 11.82 -93 4 C-91.68 4 -90.36 4 -89 4 C-88.76667969 3.20762939 -88.53335938 2.41525879 -88.29296875 1.59887695 C-87 -1 -87 -1 -84.92578125 -2.02661133 C-81.95376878 -2.65827504 -78.99114047 -3.27612104 -76 -3.8125 C-74.85732666 -4.02116699 -73.71465332 -4.22983398 -72.53735352 -4.44482422 C-50.79690655 -7.99931838 -20.17634883 -10.08817442 0 0 Z M-86 2 C-86 3.32 -86 4.64 -86 6 C-87.65 6 -89.3 6 -91 6 C-91 12.6 -91 19.2 -91 26 C-89.35 26 -87.7 26 -86 26 C-85.67 27.65 -85.34 29.3 -85 31 C-83.82244141 31.18175781 -83.82244141 31.18175781 -82.62109375 31.3671875 C-76.94155942 32.27312549 -71.52300523 33.3755867 -66 35 C-45.38902509 38.80974137 -21.88662008 36.43122347 -2 30 C-2 28.68 -2 27.36 -2 26 C-0.35 26 1.3 26 3 26 C3 19.4 3 12.8 3 6 C1.35 6 -0.3 6 -2 6 C-2 4.68 -2 3.36 -2 2 C-28.87650936 -5.95482892 -59.2630268 -7.71457946 -86 2 Z " fill="#F2D13B" transform="translate(94,7)"/>
<path d="M0 0 C0.66 0 1.32 0 2 0 C1.67 2.31 1.34 4.62 1 7 C5.95 7.33 10.9 7.66 16 8 C16 8.66 16 9.32 16 10 C17.32 9.67 18.64 9.34 20 9 C20.495 10.485 20.495 10.485 21 12 C21.66 12 22.32 12 23 12 C23 12.99 23 13.98 23 15 C23.99 15.33 24.98 15.66 26 16 C26 16.66 26 17.32 26 18 C22.7 18 19.4 18 16 18 C16 18.99 16 19.98 16 21 C7.75 21 -0.5 21 -9 21 C-9 20.01 -9 19.02 -9 18 C-13.95 18 -18.9 18 -24 18 C-23.67 17.34 -23.34 16.68 -23 16 C-20.66666667 15.66666667 -18.33333333 15.33333333 -16 15 C-15.67 14.34 -15.34 13.68 -15 13 C-13.02 13 -11.04 13 -9 13 C-8.87625 12.195625 -8.7525 11.39125 -8.625 10.5625 C-8.41875 9.716875 -8.2125 8.87125 -8 8 C-5.29120665 6.64560332 -2.99066732 6.93498549 0 7 C0 5.68 0 4.36 0 3 C-0.66 3 -1.32 3 -2 3 C-2.33 3.99 -2.66 4.98 -3 6 C-3 4.68 -3 3.36 -3 2 C-2.01 2 -1.02 2 0 2 C0 1.34 0 0.68 0 0 Z " fill="#E03B34" transform="translate(46,16)"/>
<path d="M0 0 C0 0.66 0 1.32 0 2 C-0.99 2 -1.98 2 -3 2 C-2.01 2.33 -1.02 2.66 0 3 C0 4.32 0 5.64 0 7 C-2.64 7.33 -5.28 7.66 -8 8 C-8 9.65 -8 11.3 -8 13 C-9.65614657 13.38218767 -11.32457024 13.71395102 -13 14 C-14 13 -14 13 -14.0625 10.4375 C-14.041875 9.633125 -14.02125 8.82875 -14 8 C-14.99 8 -15.98 8 -17 8 C-17 10.31 -17 12.62 -17 15 C-18.98 15 -20.96 15 -23 15 C-23.33 14.01 -23.66 13.02 -24 12 C-24.99 13.485 -24.99 13.485 -26 15 C-27.32 15 -28.64 15 -30 15 C-30.82965992 9.6072105 -31 4.44309148 -31 -1 C-28.87506859 -1.02693575 -26.75004088 -1.04636628 -24.625 -1.0625 C-23.44164062 -1.07410156 -22.25828125 -1.08570313 -21.0390625 -1.09765625 C-18 -1 -18 -1 -16 0 C-16.33 2.31 -16.66 4.62 -17 7 C-16.34 7 -15.68 7 -15 7 C-14.67 6.34 -14.34 5.68 -14 5 C-14 5.66 -14 6.32 -14 7 C-13.34 7 -12.68 7 -12 7 C-12.33 4.69 -12.66 2.38 -13 0 C-7.95531271 -2.21474076 -5.14089313 -1.85072153 0 0 Z " fill="#B74F26" transform="translate(46,16)"/>
<path d="M0 0 C0 0.33 0 0.66 0 1 C-1.08531006 0.99476318 -2.17062012 0.98952637 -3.28881836 0.98413086 C-7.30117982 0.96608164 -11.31353767 0.95456829 -15.32592773 0.94506836 C-17.06519168 0.94002796 -18.80445136 0.9331957 -20.54370117 0.92456055 C-23.03825937 0.91248208 -25.53276173 0.90676892 -28.02734375 0.90234375 C-29.2007859 0.89460182 -29.2007859 0.89460182 -30.39793396 0.88670349 C-32.26567114 0.88650774 -34.13329204 0.93800306 -36 1 C-36.33 1.33 -36.66 1.66 -37 2 C-38.56907716 2.35515013 -40.15004598 2.65815018 -41.734375 2.9375 C-43.18457031 3.19660156 -43.18457031 3.19660156 -44.6640625 3.4609375 C-46.19160156 3.72777344 -46.19160156 3.72777344 -47.75 4 C-49.74484925 4.35384216 -51.73964281 4.70799852 -53.734375 5.0625 C-54.62350586 5.21847656 -55.51263672 5.37445312 -56.42871094 5.53515625 C-58.95933248 5.99264803 -61.47997678 6.48760661 -64 7 C-64.33 8.32 -64.66 9.64 -65 11 C-66.65 11 -68.3 11 -70 11 C-70 17.6 -70 24.2 -70 31 C-68.35 31 -66.7 31 -65 31 C-64.97035156 31.61359375 -64.94070312 32.2271875 -64.91015625 32.859375 C-64.14729048 35.33791025 -64.14729048 35.33791025 -61.05859375 36.265625 C-59.26615234 36.75289062 -59.26615234 36.75289062 -57.4375 37.25 C-56.23996094 37.58515625 -55.04242188 37.9203125 -53.80859375 38.265625 C-52.88175781 38.50796875 -51.95492187 38.7503125 -51 39 C-54.76668598 40.3805087 -57.44789173 39.59568159 -61.25 38.5625 C-62.86648437 38.13130859 -62.86648437 38.13130859 -64.515625 37.69140625 C-65.33546875 37.46324219 -66.1553125 37.23507813 -67 37 C-67 35.35 -67 33.7 -67 32 C-68.65 32 -70.3 32 -72 32 C-72 24.41 -72 16.82 -72 9 C-70.68 9 -69.36 9 -68 9 C-67.76667969 8.20762939 -67.53335938 7.41525879 -67.29296875 6.59887695 C-66 4 -66 4 -63.92578125 2.97338867 C-60.95397642 2.34176909 -57.99061124 1.72542106 -55 1.1875 C-53.30665527 0.87014893 -53.30665527 0.87014893 -51.57910156 0.54638672 C-35.24674694 -2.17860485 -16.31123395 -3.08211891 0 0 Z " fill="#F9DF41" transform="translate(73,2)"/>
<path d="M0 0 C2.81256281 -0.02684312 5.62487241 -0.04676188 8.4375 -0.0625 C9.23994141 -0.07087891 10.04238281 -0.07925781 10.86914062 -0.08789062 C12.91295221 -0.0965143 14.95683902 -0.0522815 17 0 C18 1 18 1 18.0625 3.5625 C18.041875 4.366875 18.02125 5.17125 18 6 C17.34 6 16.68 6 16 6 C16 6.99 16 7.98 16 9 C13.54159395 9.02691685 11.08348118 9.04679802 8.625 9.0625 C7.92632812 9.07087891 7.22765625 9.07925781 6.5078125 9.08789062 C1.2265625 9.11328125 1.2265625 9.11328125 -1 8 C-0.67 5.36 -0.34 2.72 0 0 Z " fill="#AB5025" transform="translate(48,15)"/>
<path d="M0 0 C1.16080078 0.00451172 2.32160156 0.00902344 3.51757812 0.01367188 C6.36593934 0.02539353 9.21419222 0.0418024 12.0625 0.0625 C12.0625 0.3925 12.0625 0.7225 12.0625 1.0625 C10.9955188 1.092229 10.9955188 1.092229 9.90698242 1.12255859 C6.68761184 1.21774867 3.4688955 1.32745229 0.25 1.4375 C-0.86955078 1.4684375 -1.98910156 1.499375 -3.14257812 1.53125 C-4.75229492 1.58925781 -4.75229492 1.58925781 -6.39453125 1.6484375 C-7.8791687 1.69556885 -7.8791687 1.69556885 -9.39379883 1.74365234 C-12.17825094 1.90023433 -12.17825094 1.90023433 -14.9375 4.0625 C-22.8073358 5.77284784 -30.91689633 6.45171255 -38.9375 7.0625 C-38.9375 8.3825 -38.9375 9.7025 -38.9375 11.0625 C-40.5875 11.0625 -42.2375 11.0625 -43.9375 11.0625 C-43.9375 16.6725 -43.9375 22.2825 -43.9375 28.0625 C-42.2875 28.0625 -40.6375 28.0625 -38.9375 28.0625 C-39.2675 30.0425 -39.5975 32.0225 -39.9375 34.0625 C-40.2675 32.7425 -40.5975 31.4225 -40.9375 30.0625 C-42.5875 30.0625 -44.2375 30.0625 -45.9375 30.0625 C-45.9375 23.4625 -45.9375 16.8625 -45.9375 10.0625 C-44.2875 10.0625 -42.6375 10.0625 -40.9375 10.0625 C-40.6075 8.4125 -40.2775 6.7625 -39.9375 5.0625 C-36.75065572 4.4134032 -33.56291405 3.76882052 -30.375 3.125 C-29.47974609 2.94259766 -28.58449219 2.76019531 -27.66210938 2.57226562 C-18.30828892 0.6877963 -9.54604103 -0.07055062 0 0 Z " fill="#B23F21" transform="translate(48.9375,2.9375)"/>
<path d="M0 0 C2.64 0 5.28 0 8 0 C8 0.99 8 1.98 8 3 C8.99 3 9.98 3 11 3 C11 2.01 11 1.02 11 0 C12.65 0 14.3 0 16 0 C16.33 2.64 16.66 5.28 17 8 C11.39 8 5.78 8 0 8 C-1 3 -1 3 0 0 Z " fill="#B36720" transform="translate(68,16)"/>
<path d="M0 0 C2.06043706 -0.00216939 4.12032264 -0.02031163 6.18066406 -0.03930664 C14.30718733 -0.07373769 21.99743996 0.56141313 29.96191406 2.18530273 C31.85748079 2.54089356 33.75327885 2.89525585 35.64941406 3.24780273 C39.83147928 4.05486795 39.83147928 4.05486795 40.96191406 5.18530273 C41.00255238 6.85147389 41.00463506 8.51918368 40.96191406 10.18530273 C40.30191406 9.19530273 39.64191406 8.20530273 38.96191406 7.18530273 C35.96464695 6.27798805 33.15582309 5.61606757 30.08691406 5.06030273 C29.15540527 4.88853516 28.22389648 4.71676758 27.26416016 4.53979492 C12.01952969 2.05333896 -3.62788656 2.33296366 -19.03808594 2.18530273 C-19.03808594 1.85530273 -19.03808594 1.52530273 -19.03808594 1.18530273 C-12.69172987 -0.02539602 -6.43214956 -0.00075601 0 0 Z " fill="#AB2421" transform="translate(50.0380859375,3.814697265625)"/>
<path d="M0 0 C13.86 0 27.72 0 42 0 C42 0.33 42 0.66 42 1 C38.7 1 35.4 1 32 1 C32 1.99 32 2.98 32 4 C23.75 4 15.5 4 7 4 C7 3.01 7 2.02 7 1 C4.69 1 2.38 1 0 1 C0 0.67 0 0.34 0 0 Z " fill="#E76F60" transform="translate(30,33)"/>
<path d="M0 0 C0.66 0 1.32 0 2 0 C1.67 2.31 1.34 4.62 1 7 C3.97 7.495 3.97 7.495 7 8 C7.66 10.31 8.32 12.62 9 15 C4.38225105 15.18108819 1.22569972 14.81101416 -3 13 C-3.99 13.495 -3.99 13.495 -5 14 C-5.125 9.25 -5.125 9.25 -4 7 C-2.68 7 -1.36 7 0 7 C0 5.68 0 4.36 0 3 C-0.66 3 -1.32 3 -2 3 C-2.33 3.99 -2.66 4.98 -3 6 C-3 4.68 -3 3.36 -3 2 C-2.01 2 -1.02 2 0 2 C0 1.34 0 0.68 0 0 Z " fill="#C33C35" transform="translate(46,16)"/>
<path d="M0 0 C4.29 0 8.58 0 13 0 C13.66 2.31 14.32 4.62 15 7 C10.05 7 5.1 7 0 7 C0 4.69 0 2.38 0 0 Z " fill="#BB4E4C" transform="translate(70,24)"/>
<path d="M0 0 C2.254886 0.03172405 4.5090708 0.04104915 6.76416016 0.046875 C12.80161893 0.08480217 18.64525274 0.13670639 24.59619141 1.28125 C24.59619141 1.61125 24.59619141 1.94125 24.59619141 2.28125 C23.51088135 2.27601318 22.42557129 2.27077637 21.30737305 2.26538086 C17.29501159 2.24733164 13.28265374 2.23581829 9.27026367 2.22631836 C7.53099973 2.22127796 5.79174004 2.2144457 4.05249023 2.20581055 C1.55793204 2.19373208 -0.93657033 2.18801892 -3.43115234 2.18359375 C-4.6045945 2.17585182 -4.6045945 2.17585182 -5.80174255 2.16795349 C-7.66947974 2.16775774 -9.53710064 2.21925306 -11.40380859 2.28125 C-11.73380859 2.61125 -12.06380859 2.94125 -12.40380859 3.28125 C-15.13460845 3.68657999 -17.84929267 4.03604248 -20.59130859 4.34375 C-21.34734375 4.43462891 -22.10337891 4.52550781 -22.88232422 4.61914062 C-27.08099306 5.10346236 -31.16904204 5.3825602 -35.40380859 5.28125 C-25.28558864 -0.5778387 -11.36523037 -0.16110183 0 0 Z " fill="#F8E15C" transform="translate(48.40380859375,0.71875)"/>
<path d="M0 0 C0 0.66 0 1.32 0 2 C-0.99 2 -1.98 2 -3 2 C-2.01 2.33 -1.02 2.66 0 3 C0 4.32 0 5.64 0 7 C-3.63 7 -7.26 7 -11 7 C-11 4.36 -11 1.72 -11 -1 C-6.99799622 -2.60080151 -3.95443764 -1.29279692 0 0 Z " fill="#C55A24" transform="translate(46,16)"/>
<path d="M0 0 C2.97 0 5.94 0 9 0 C9 1.32 9 2.64 9 4 C15.93 4 22.86 4 30 4 C30 4.33 30 4.66 30 5 C16.47 5 2.94 5 -11 5 C-11 4.67 -11 4.34 -11 4 C-7.37 4 -3.74 4 0 4 C0 2.68 0 1.36 0 0 Z " fill="#E17A64" transform="translate(41,8)"/>
<path d="M0 0 C0 2.31 0 4.62 0 7 C-1.98 7 -3.96 7 -6 7 C-6.33 6.01 -6.66 5.02 -7 4 C-7.99 5.485 -7.99 5.485 -9 7 C-10.32 7 -11.64 7 -13 7 C-13.33 5.02 -13.66 3.04 -14 1 C-9.23692563 0.04738513 -4.8333472 -0.08333357 0 0 Z " fill="#B15250" transform="translate(29,24)"/>
<path d="M0 0 C3.96 0 7.92 0 12 0 C12 2.31 12 4.62 12 7 C10.02 7 8.04 7 6 7 C6 5.68 6 4.36 6 3 C5.34 3 4.68 3 4 3 C4 4.32 4 5.64 4 7 C3.34 7 2.68 7 2 7 C0.5393715 4.35261084 0 3.10551666 0 0 Z " fill="#C3AC12" transform="translate(16,16)"/>
<path d="M0 0 C0.33 1.32 0.66 2.64 1 4 C2.65 4 4.3 4 6 4 C6 10.6 6 17.2 6 24 C4.35 24 2.7 24 1 24 C0.67 25.32 0.34 26.64 0 28 C-0.33 26.02 -0.66 24.04 -1 22 C0.65 22 2.3 22 4 22 C4 16.72 4 11.44 4 6 C2.35 6 0.7 6 -1 6 C-0.67 4.02 -0.34 2.04 0 0 Z " fill="#B94123" transform="translate(91,9)"/>
<path d="M0 0 C-6.93 1.485 -6.93 1.485 -14 3 C-14.33 4.32 -14.66 5.64 -15 7 C-16.65 7 -18.3 7 -20 7 C-20 13.27 -20 19.54 -20 26 C-20.33 26 -20.66 26 -21 26 C-21 19.4 -21 12.8 -21 6 C-20.01 5.67 -19.02 5.34 -18 5 C-16.78130071 2.49552484 -16.78130071 2.49552484 -16 0 C-14.08416353 -0.1958009 -12.16727461 -0.38132214 -10.25 -0.5625 C-8.64898438 -0.71912109 -8.64898438 -0.71912109 -7.015625 -0.87890625 C-4 -1 -4 -1 0 0 Z " fill="#EFCB31" transform="translate(23,6)"/>
<path d="M0 0 C1.98 0 3.96 0 6 0 C6 0.66 6 1.32 6 2 C7.32 1.67 8.64 1.34 10 1 C10.66 2.65 11.32 4.3 12 6 C10.35 6 8.7 6 7 6 C7 5.34 7 4.68 7 4 C6.5875 4.495 6.175 4.99 5.75 5.5 C4 7 4 7 0 7 C0 4.69 0 2.38 0 0 Z " fill="#B76F6E" transform="translate(56,24)"/>
<path d="M0 0 C2.125 0.9375 2.125 0.9375 4 2 C3.01 2 2.02 2 1 2 C2.57894208 4.36841312 3.9754262 6.06745228 6 8 C3.64729407 9.17635297 2.179248 9.13359359 -0.4375 9.125 C-1.61119141 9.12886719 -1.61119141 9.12886719 -2.80859375 9.1328125 C-5 9 -5 9 -8 8 C-7.67 7.34 -7.34 6.68 -7 6 C-5.68 6 -4.36 6 -3 6 C-2.814375 4.7934375 -2.814375 4.7934375 -2.625 3.5625 C-2.41875 2.716875 -2.2125 1.87125 -2 1 C-1.34 0.67 -0.68 0.34 0 0 Z " fill="#D13935" transform="translate(40,23)"/>
<path d="M0 0 C2.24940295 -0.08119503 4.49964871 -0.13927819 6.75 -0.1875 C8.00296875 -0.22230469 9.2559375 -0.25710937 10.546875 -0.29296875 C14 0 14 0 18 3 C12.06 3 6.12 3 0 3 C0 2.01 0 1.02 0 0 Z " fill="#EF534E" transform="translate(37,34)"/>
<path d="M0 0 C2.31 0 4.62 0 7 0 C7 2.31 7 4.62 7 7 C4.69 7 2.38 7 0 7 C0 4.69 0 2.38 0 0 Z " fill="#E2D209" transform="translate(53,16)"/>
<path d="M0 0 C2.97 0 5.94 0 9 0 C9 1.32 9 2.64 9 4 C6.03 4 3.06 4 0 4 C0 2.68 0 1.36 0 0 Z " fill="#F05F5B" transform="translate(41,8)"/>
<path d="M0 0 C1.98 0 3.96 0 6 0 C6 1.65 6 3.3 6 5 C4.34385343 5.38218767 2.67542976 5.71395102 1 6 C0 5 0 5 -0.0625 2.4375 C-0.041875 1.633125 -0.02125 0.82875 0 0 Z " fill="#B9605F" transform="translate(32,24)"/>
<path d="M0 0 C1.65 0 3.3 0 5 0 C5 1.65 5 3.3 5 5 C4.34 5 3.68 5 3 5 C3 5.66 3 6.32 3 7 C2.01 7 1.02 7 0 7 C0 4.69 0 2.38 0 0 Z " fill="#E1CE09" transform="translate(61,16)"/>
<path d="M0 0 C1.37478516 0.01740234 1.37478516 0.01740234 2.77734375 0.03515625 C3.69644531 0.04417969 4.61554688 0.05320312 5.5625 0.0625 C6.27277344 0.07410156 6.98304687 0.08570313 7.71484375 0.09765625 C7.71484375 0.75765625 7.71484375 1.41765625 7.71484375 2.09765625 C5.07484375 2.09765625 2.43484375 2.09765625 -0.28515625 2.09765625 C-0.61515625 4.40765625 -0.94515625 6.71765625 -1.28515625 9.09765625 C-1.61515625 9.09765625 -1.94515625 9.09765625 -2.28515625 9.09765625 C-3.1640625 2.9453125 -3.1640625 2.9453125 -3.28515625 1.09765625 C-2.28515625 0.09765625 -2.28515625 0.09765625 0 0 Z " fill="#C94728" transform="translate(68.28515625,13.90234375)"/>
<path d="M0 0 C1.32 0 2.64 0 4 0 C4 2.31 4 4.62 4 7 C2.35 7 0.7 7 -1 7 C-0.67 4.69 -0.34 2.38 0 0 Z " fill="#E3CE09" transform="translate(80,16)"/>
<path d="M0 0 C1.65 0 3.3 0 5 0 C5 2.31 5 4.62 5 7 C4.34 7 3.68 7 3 7 C3 6.01 3 5.02 3 4 C2.34 4 1.68 4 1 4 C0.67 4.66 0.34 5.32 0 6 C0 4.02 0 2.04 0 0 Z " fill="#E9D807" transform="translate(23,16)"/>
<path d="M0 0 C1.65 0 3.3 0 5 0 C5 0.66 5 1.32 5 2 C4.01 2 3.02 2 2 2 C2.99 2.33 3.98 2.66 5 3 C5 4.32 5 5.64 5 7 C3.35 6.67 1.7 6.34 0 6 C0 4.02 0 2.04 0 0 Z " fill="#E7D607" transform="translate(41,16)"/>
<path d="M0 0 C0.99 0 1.98 0 3 0 C3.33 2.31 3.66 4.62 4 7 C2.35 7 0.7 7 -1 7 C-0.67 4.69 -0.34 2.38 0 0 Z " fill="#E6D507" transform="translate(30,16)"/>
<path d="M0 0 C0.99 0 1.98 0 3 0 C3.33 2.31 3.66 4.62 4 7 C2.35 7 0.7 7 -1 7 C-0.67 4.69 -0.34 2.38 0 0 Z " fill="#E9D907" transform="translate(68,16)"/>
<path d="M0 0 C0.99 0 1.98 0 3 0 C3.33 2.31 3.66 4.62 4 7 C2.35 7 0.7 7 -1 7 C-0.67 4.69 -0.34 2.38 0 0 Z " fill="#EADA06" transform="translate(48,16)"/>
<path d="M0 0 C0.89203125 0.19464844 1.7840625 0.38929688 2.703125 0.58984375 C3.37859375 0.74582031 4.0540625 0.90179688 4.75 1.0625 C4.75 1.7225 4.75 2.3825 4.75 3.0625 C2.97844346 2.94820603 1.20773771 2.82066963 -0.5625 2.6875 C-1.54863281 2.61789062 -2.53476563 2.54828125 -3.55078125 2.4765625 C-6.25 2.0625 -6.25 2.0625 -9.25 0.0625 C-5.84598052 -1.07482426 -3.47543336 -0.77739957 0 0 Z " fill="#F8DF4A" transform="translate(78.25,2.9375)"/>
<path d="M0 0 C1.65 0 3.3 0 5 0 C5 1.65 5 3.3 5 5 C3.35 5 1.7 5 0 5 C0 3.35 0 1.7 0 0 Z " fill="#B39292" transform="translate(71,25)"/>
<path d="M0 0 C0.66 0 1.32 0 2 0 C2.33 1.32 2.66 2.64 3 4 C3.66 4 4.32 4 5 4 C5 4.99 5 5.98 5 7 C3.35 7 1.7 7 0 7 C0 4.69 0 2.38 0 0 Z " fill="#E4D408" transform="translate(73,16)"/>
<path d="M0 0 C2.31 0 4.62 0 7 0 C7 0.99 7 1.98 7 3 C4.36 3 1.72 3 -1 3 C-0.67 2.01 -0.34 1.02 0 0 Z " fill="#F16B66" transform="translate(52,8)"/>
<path d="M0 0 C0.66 0 1.32 0 2 0 C2 1.65 2 3.3 2 5 C2.99 4.67 3.98 4.34 5 4 C5 4.99 5 5.98 5 7 C3.35 7 1.7 7 0 7 C0 4.69 0 2.38 0 0 Z " fill="#E8D507" transform="translate(35,16)"/>
<path d="M0 0 C0.99 0 1.98 0 3 0 C2.74438677 2.3431213 2.40729228 4.67843403 2 7 C1.01 7.495 1.01 7.495 0 8 C0 5.36 0 2.72 0 0 Z " fill="#DA3532" transform="translate(29,24)"/>
<path d="M0 0 C-0.99 1.485 -0.99 1.485 -2 3 C-4.97 2.67 -7.94 2.34 -11 2 C-11 1.67 -11 1.34 -11 1 C-7.26562152 0.12132271 -3.83225427 -0.08912219 0 0 Z " fill="#B64222" transform="translate(34,39)"/>
<path d="M0 0 C1.98 0 3.96 0 6 0 C6 0.99 6 1.98 6 3 C4.02 3 2.04 3 0 3 C0 2.01 0 1.02 0 0 Z " fill="#F0615C" transform="translate(37,34)"/>
<path d="M0 0 C1.65 0 3.3 0 5 0 C5 0.66 5 1.32 5 2 C4.34 2 3.68 2 3 2 C3.33 3.65 3.66 5.3 4 7 C3.34 7 2.68 7 2 7 C0.5393715 4.35261084 0 3.10551666 0 0 Z " fill="#EDDE06" transform="translate(16,16)"/>
<path d="M0 0 C0.99 0.33 1.98 0.66 3 1 C3.6875 3.0625 3.6875 3.0625 4 5 C2.35 5 0.7 5 -1 5 C-0.67 3.35 -0.34 1.7 0 0 Z " fill="#B09291" transform="translate(50,25)"/>
<path d="M0 0 C1.98 0.99 1.98 0.99 4 2 C4.33 1.34 4.66 0.68 5 0 C5 1.65 5 3.3 5 5 C3.33333333 5 1.66666667 5 0 5 C0 3.35 0 1.7 0 0 Z " fill="#A7908F" transform="translate(41,25)"/>
<path d="M0 0 C0.33 0.66 0.66 1.32 1 2 C1.66 2 2.32 2 3 2 C3 1.34 3 0.68 3 0 C3.66 0 4.32 0 5 0 C5 1.65 5 3.3 5 5 C4.34 5 3.68 5 3 5 C3 4.34 3 3.68 3 3 C2.34 3 1.68 3 1 3 C0.67 3.66 0.34 4.32 0 5 C0 3.35 0 1.7 0 0 Z " fill="#B7A1A1" transform="translate(24,25)"/>
<path d="M0 0 C0.66 0 1.32 0 2 0 C2 0.66 2 1.32 2 2 C2.66 2 3.32 2 4 2 C3.67 2.99 3.34 3.98 3 5 C1.35 5 -0.3 5 -2 5 C-2 4.34 -2 3.68 -2 3 C-1.34 3 -0.68 3 0 3 C0 2.01 0 1.02 0 0 Z " fill="#D8382F" transform="translate(64,21)"/>
<path d="M0 0 C0.66 0 1.32 0 2 0 C1.67 2.31 1.34 4.62 1 7 C0.67 5.68 0.34 4.36 0 3 C-0.66 3 -1.32 3 -2 3 C-2.33 3.99 -2.66 4.98 -3 6 C-3 4.68 -3 3.36 -3 2 C-2.01 2 -1.02 2 0 2 C0 1.34 0 0.68 0 0 Z " fill="#A1681D" transform="translate(46,16)"/>
</svg>
